<svg xmlns="http://www.w3.org/2000/svg" width="60" height="60" viewBox="0 0 60 60"><g transform="translate(600)"><circle cx="30" cy="30" r="30" transform="translate(-600)" fill="#00aca7"/><g transform="translate(-588 21)"><path d="M-447.467,156v1.4a.265.265,0,0,1-.3.3h-4.6a.265.265,0,0,1-.3-.3V140.3a.265.265,0,0,1,.3-.3h4.6a.265.265,0,0,1,.3.3v5.2a5.588,5.588,0,0,1,4.4-2.2c3.5,0,6.5,2.8,6.5,7.4,0,4.2-2.6,7.4-6.5,7.4A6.054,6.054,0,0,1-447.467,156Zm-.1-5.4a3.072,3.072,0,0,0,3,3.3,3,3,0,0,0,3-3.2,3,3,0,0,0-3-3.2A2.915,2.915,0,0,0-447.567,150.6Z" transform="translate(462.767 -140)" fill="#fff"/><path d="M-513.4,155.178a7.578,7.578,0,0,0,1.6-.3c.2-.1.4.1.4.3v3.3c0,.1-.1.2-.2.3a7.81,7.81,0,0,1-3.4.7c-2.3,0-5-.5-5-4.7v-9.6c0-.1,0-.2.1-.2l4.6-3.2c.2-.1.5,0,.5.2v3h3.1a.265.265,0,0,1,.3.3v3.4a.265.265,0,0,1-.3.3h-3.1v4.8C-514.8,154.878-514.2,155.178-513.4,155.178Z" transform="translate(520 -141.478)" fill="#fff"/><path d="M-330.733,155.178a7.574,7.574,0,0,0,1.6-.3c.2-.1.4.1.4.3v3.3c0,.1-.1.2-.2.3a7.809,7.809,0,0,1-3.4.7c-2.3,0-5-.5-5-4.7v-9.6c0-.1,0-.2.1-.2l4.6-3.2c.2-.1.5,0,.5.2v3h3.1a.265.265,0,0,1,.3.3v3.4a.265.265,0,0,1-.3.3h-3.1v4.8A1.221,1.221,0,0,0-330.733,155.178Z" transform="translate(364.733 -141.478)" fill="#fff"/></g></g></svg>