<?xml version="1.0" standalone="no"?>
<!DOCTYPE svg PUBLIC "-//W3C//DTD SVG 20010904//EN"
 "http://www.w3.org/TR/2001/REC-SVG-20010904/DTD/svg10.dtd">
<svg version="1.0" xmlns="http://www.w3.org/2000/svg"
 width="260.000000pt" height="260.000000pt" viewBox="0 0 260.000000 260.000000"
 preserveAspectRatio="xMidYMid meet">
<metadata>
Created by potrace 1.14, written by Peter Selinger 2001-2017
</metadata>
<g transform="translate(0.000000,260.000000) scale(0.100000,-0.100000)"
fill="#000000" stroke="none">
<path d="M1386 1894 c-4 -10 -10 -14 -14 -9 -6 9 -38 11 -67 5 -26 -6 -41 -4
-54 5 -12 8 -13 7 -6 -4 6 -11 4 -13 -8 -8 -10 3 -17 3 -17 -2 0 -4 -6 -8 -12
-9 -34 -2 -67 -14 -111 -42 -27 -17 -53 -27 -59 -24 -6 4 -8 3 -5 -2 3 -6 2
-16 -3 -24 -6 -10 -12 -11 -22 -2 -10 7 -18 8 -28 0 -13 -8 -12 -9 2 -5 29 10
28 -5 -5 -52 -17 -25 -32 -50 -32 -54 0 -4 -5 -11 -11 -15 -6 -4 -10 -15 -8
-24 1 -10 -1 -18 -6 -18 -7 0 -13 13 -25 55 -8 26 -33 64 -38 58 -4 -3 -7 0
-7 8 0 9 -9 25 -21 37 -11 12 -17 27 -14 32 3 5 0 7 -8 4 -8 -3 -21 1 -28 9
-8 7 -28 20 -46 27 -17 8 -30 17 -27 21 2 4 -5 5 -16 2 -15 -4 -20 0 -20 13 0
11 -4 15 -8 9 -10 -14 -48 -11 -44 4 1 7 -2 9 -9 5 -9 -5 -103 -9 -111 -4 -12
7 -55 3 -51 -4 4 -5 -1 -7 -10 -3 -10 3 -17 2 -17 -4 0 -6 -4 -8 -9 -4 -5 3
-29 -1 -52 -9 -34 -12 -46 -12 -59 -3 -13 11 -13 10 0 -7 14 -18 13 -19 -7
-14 -16 4 -20 2 -16 -10 4 -10 2 -13 -5 -8 -6 3 -18 -4 -26 -16 -9 -12 -16
-18 -16 -13 0 6 -5 2 -11 -8 -6 -9 -15 -14 -21 -11 -6 4 -8 2 -4 -4 3 -6 -3
-17 -14 -25 -11 -7 -18 -16 -15 -19 3 -3 -4 -13 -15 -23 -11 -10 -20 -24 -20
-32 0 -7 -4 -13 -10 -13 -5 0 -9 -3 -8 -7 1 -5 -4 -24 -11 -43 -17 -44 -19
-49 -26 -84 -3 -16 -9 -34 -13 -40 -3 -6 -6 -28 -5 -48 1 -25 -2 -36 -9 -32
-7 5 -8 2 -3 -5 11 -19 13 -113 2 -135 -6 -13 -6 -16 2 -12 17 11 13 -5 -6
-26 -11 -13 -13 -18 -4 -16 9 2 14 -14 15 -59 2 -38 -1 -60 -7 -56 -6 4 -7 1
-2 -6 12 -21 16 -103 4 -95 -8 4 -8 0 -2 -12 5 -11 9 -79 8 -152 0 -122 1
-133 18 -128 9 2 17 0 17 -5 0 -5 11 -4 25 1 15 6 27 6 30 0 3 -6 15 -6 29 0
13 5 26 7 28 5 2 -3 4 40 4 95 -1 55 1 100 4 100 3 0 3 27 0 60 -3 33 -3 60 0
60 3 0 4 19 2 41 -4 33 -2 40 9 33 12 -6 12 -5 1 8 -7 9 -12 29 -10 45 1 16
-1 34 -5 40 -4 7 0 16 10 22 10 6 13 11 7 11 -12 0 -25 90 -14 90 3 0 4 16 2
36 -4 29 -2 35 9 29 11 -6 12 -5 1 6 -13 14 -17 33 -4 25 4 -2 7 11 6 29 -1
19 4 45 12 60 7 14 9 23 4 20 -6 -3 -7 1 -4 9 3 9 10 16 16 16 5 0 6 5 2 12
-4 6 1 17 11 25 11 7 15 13 11 13 -10 0 31 59 61 88 13 12 31 22 39 22 7 0 14
5 14 11 0 6 6 9 14 6 8 -3 16 -2 18 3 2 5 19 11 38 12 19 2 38 8 42 13 5 6 8
4 8 -5 0 -13 1 -13 10 0 8 13 10 13 10 -2 0 -9 4 -20 10 -23 5 -3 7 0 4 9 -13
33 99 -2 154 -49 39 -32 94 -110 85 -119 -4 -3 0 -6 7 -6 7 0 11 -3 8 -6 -3
-3 3 -28 13 -56 15 -41 16 -55 6 -67 -8 -9 -8 -12 -1 -8 16 9 24 -38 10 -54
-7 -7 -7 -10 0 -6 7 4 10 -93 11 -313 1 -175 4 -323 8 -329 3 -6 11 -9 16 -6
5 4 9 0 9 -7 0 -8 3 -9 8 -3 8 12 82 14 82 3 0 -4 8 -1 18 8 15 12 18 29 16
89 -1 49 2 72 9 68 6 -4 7 -1 1 8 -12 20 -14 80 -1 72 6 -4 7 -1 1 8 -11 18
-12 119 -1 119 5 0 5 6 0 13 -13 20 -13 41 0 49 7 4 7 8 2 8 -12 0 -13 40 -1
58 4 7 3 12 -2 12 -11 0 -9 60 2 78 4 7 4 12 -1 12 -4 0 -8 16 -8 35 0 19 2
35 6 35 3 0 5 15 6 34 1 19 5 41 9 48 5 7 10 21 11 32 5 32 53 119 79 143 14
13 22 23 18 23 -4 0 13 13 37 29 32 22 47 27 56 19 11 -8 12 -7 7 8 -4 10 -4
16 1 12 4 -4 14 -3 22 3 10 9 17 8 30 -2 11 -10 14 -10 9 -1 -4 6 -2 13 3 13
14 2 30 6 34 9 7 6 57 4 57 -2 0 -4 14 -8 31 -8 16 0 28 -4 25 -9 -3 -5 6 -8
20 -8 28 0 67 -31 57 -46 -3 -6 -1 -7 5 -3 14 9 75 -83 68 -101 -3 -7 -1 -13
4 -13 6 0 9 -3 8 -7 -1 -5 2 -19 6 -32 6 -16 4 -26 -5 -32 -11 -7 -11 -9 2 -9
11 0 16 -12 17 -42 3 -53 3 -55 -1 -98 -2 -19 2 -38 7 -42 7 -5 6 -8 -2 -8 -7
0 -10 -5 -6 -11 12 -20 12 -69 0 -69 -7 0 -8 -3 -1 -8 6 -4 11 -20 11 -37 0
-16 -5 -33 -11 -37 -7 -5 -6 -8 1 -8 6 0 11 -7 11 -15 0 -8 -5 -15 -11 -15 -6
0 -5 -4 2 -9 8 -4 14 -12 14 -16 0 -4 -6 -12 -14 -16 -8 -6 -9 -9 -1 -9 9 0
11 -19 3 -40 -1 -3 -1 -9 0 -15 7 -31 6 -54 -1 -49 -5 3 -9 1 -9 -5 0 -5 6
-12 13 -14 9 -4 8 -8 -3 -16 -13 -10 -13 -12 0 -21 13 -9 13 -10 0 -10 -13 0
-13 -1 0 -11 11 -8 12 -12 3 -15 -9 -4 -9 -13 -2 -30 6 -17 5 -32 -2 -46 -6
-11 -7 -18 -1 -14 5 3 9 -2 9 -12 0 -36 3 -43 15 -36 7 4 33 6 58 5 25 -2 56
-4 70 -5 14 -1 31 3 38 8 6 4 12 5 12 0 0 -11 51 -10 68 0 7 4 12 3 12 -3 0
-6 11 -6 30 -1 19 5 30 5 30 -1 0 -6 8 -5 21 1 14 8 24 8 33 1 7 -6 15 -8 18
-5 4 3 48 7 100 9 88 4 140 9 146 15 1 1 7 4 12 5 6 1 13 4 18 5 4 1 10 2 14
2 3 -1 12 5 18 13 7 8 16 15 21 15 4 0 22 13 40 30 18 16 37 26 42 23 6 -3 7
-1 3 5 -3 6 3 17 14 25 11 7 17 17 13 20 -3 4 -1 7 6 7 7 0 9 5 6 10 -3 6 -2
10 3 10 9 0 30 45 29 60 0 3 5 15 12 28 7 13 15 44 18 70 3 26 10 50 15 53 6
4 5 9 -3 12 -12 5 -12 6 0 6 11 1 11 4 1 16 -10 12 -10 15 1 15 11 0 11 2 -1
10 -8 5 -10 10 -4 10 5 0 10 11 10 25 0 14 -3 25 -6 25 -8 0 -5 43 4 58 4 7 2
12 -5 12 -8 0 -7 5 2 17 10 11 10 14 2 9 -12 -7 -16 11 -16 77 0 9 -3 17 -7
17 -4 0 -10 9 -13 20 -3 11 -1 17 4 14 5 -3 0 11 -11 30 -11 20 -20 38 -21 41
-6 31 -13 45 -20 45 -5 0 -9 6 -9 14 0 17 -103 126 -122 131 -25 5 -78 29 -78
35 0 3 -17 7 -37 8 -21 2 -49 10 -62 19 -13 8 -20 10 -16 3 6 -9 -3 -11 -32
-8 -22 3 -46 9 -53 13 -8 5 -11 4 -7 -2 4 -6 -4 -10 -18 -10 -15 0 -22 4 -18
11 3 6 0 6 -8 -1 -20 -19 -33 -16 -18 5 13 16 12 16 -6 1 -27 -21 -272 -22
-267 -1 1 8 -2 11 -8 7 -6 -3 -8 -10 -5 -15 9 -14 -29 -17 -59 -5 -20 8 -25
14 -15 18 11 4 10 6 -3 6 -9 1 -18 5 -20 10 -1 5 -23 20 -48 34 -25 14 -44 31
-42 38 2 9 0 9 -10 2 -15 -13 -62 2 -53 16 3 6 -6 6 -25 1 -23 -7 -32 -5 -38
7 -8 13 -10 13 -16 -3z m424 -298 c0 -6 4 -5 9 3 8 12 12 13 25 1 14 -11 16
-10 10 5 -6 14 -4 16 7 9 8 -4 22 -7 33 -5 11 1 16 -2 12 -8 -4 -7 -1 -8 8 -5
9 3 16 11 16 17 0 6 7 2 16 -9 8 -10 12 -13 8 -5 -5 11 -2 13 14 9 12 -4 22
-2 22 3 0 4 7 6 15 3 8 -4 12 -11 9 -18 -3 -6 2 -2 10 8 12 15 16 16 17 5 0
-10 2 -11 6 -1 4 10 8 10 20 1 12 -10 16 -10 24 2 7 12 13 7 11 -12 -1 -3 5
-6 13 -6 8 0 12 4 9 9 -3 4 4 8 16 8 14 0 19 -4 14 -12 -5 -9 -2 -8 9 1 15 12
20 11 39 -5 12 -11 18 -13 13 -5 -10 17 42 -16 73 -46 23 -23 31 -50 10 -37
-7 4 -8 3 -4 -5 4 -6 12 -9 17 -6 12 8 37 -17 31 -33 -2 -6 2 -12 9 -12 7 0 9
-3 6 -7 -4 -3 -1 -13 6 -21 6 -8 13 -23 13 -34 1 -10 2 -19 3 -20 3 -3 9 -34
14 -68 2 -11 6 -23 10 -26 10 -11 -14 -35 -27 -27 -6 3 -7 2 -3 -3 5 -5 13
-10 18 -10 5 -1 12 -2 15 -3 4 0 0 -9 -7 -18 -8 -9 -9 -14 -4 -11 7 4 11 -7
11 -28 0 -24 -4 -33 -13 -30 -7 3 -15 0 -19 -6 -4 -6 -3 -8 3 -5 6 4 16 0 23
-8 8 -9 8 -15 2 -15 -6 0 -9 -12 -7 -26 2 -19 -1 -24 -13 -19 -12 4 -13 3 -2
-10 10 -12 10 -18 0 -30 -7 -8 -10 -15 -7 -15 3 0 1 -13 -4 -30 -6 -16 -15
-30 -20 -30 -5 0 -9 -5 -9 -11 0 -30 -71 -84 -124 -95 -10 -2 -21 -6 -24 -9
-3 -2 -11 0 -18 6 -9 7 -19 7 -30 1 -11 -6 -27 -7 -41 -1 -13 5 -25 4 -28 -2
-4 -5 -12 -6 -18 -2 -17 10 -47 11 -47 1 0 -5 -10 -3 -22 3 -13 7 -23 11 -23
10 0 -6 -76 -18 -79 -12 -2 3 -21 6 -41 5 -26 -2 -35 2 -31 11 2 7 -2 12 -11
11 -13 -1 -16 10 -17 49 -1 28 3 53 9 57 6 5 7 8 0 8 -11 0 -12 320 -1 339 4
6 4 11 -1 11 -4 0 -9 21 -10 48 -5 105 -8 132 -17 132 -6 0 -5 5 2 12 9 9 8
16 -5 30 -9 10 -13 18 -8 18 4 0 2 7 -5 15 -13 16 -5 20 29 16 7 -2 10 2 6 8
-3 7 0 8 9 5 9 -3 16 -11 16 -18z"/>
<path d="M2220 1566 c0 -2 8 -10 18 -17 15 -13 16 -12 3 4 -13 16 -21 21 -21
13z"/>
<path d="M1799 1473 c-13 -16 -12 -17 4 -4 9 7 17 15 17 17 0 8 -8 3 -21 -13z"/>
<path d="M2376 1178 c3 -5 10 -6 15 -3 13 9 11 12 -6 12 -8 0 -12 -4 -9 -9z"/>
<path d="M2290 940 c0 -5 5 -10 11 -10 5 0 7 5 4 10 -3 6 -8 10 -11 10 -2 0
-4 -4 -4 -10z"/>
<path d="M1850 900 c0 -5 5 -10 11 -10 5 0 7 5 4 10 -3 6 -8 10 -11 10 -2 0
-4 -4 -4 -10z"/>
<path d="M1835 860 c3 -5 8 -10 11 -10 2 0 4 5 4 10 0 6 -5 10 -11 10 -5 0 -7
-4 -4 -10z"/>
<path d="M1640 1820 c-9 -6 -10 -10 -3 -10 6 0 15 5 18 10 8 12 4 12 -15 0z"/>
<path d="M1670 1786 c0 -2 7 -7 16 -10 8 -3 12 -2 9 4 -6 10 -25 14 -25 6z"/>
<path d="M953 1745 c0 -8 4 -12 9 -9 5 3 6 10 3 15 -9 13 -12 11 -12 -6z"/>
<path d="M890 1740 c0 -5 5 -10 11 -10 5 0 7 5 4 10 -3 6 -8 10 -11 10 -2 0
-4 -4 -4 -10z"/>
<path d="M933 1705 c0 -8 4 -12 9 -9 5 3 6 10 3 15 -9 13 -12 11 -12 -6z"/>
<path d="M575 1700 c3 -5 8 -10 11 -10 2 0 4 5 4 10 0 6 -5 10 -11 10 -5 0 -7
-4 -4 -10z"/>
<path d="M615 1700 c3 -5 8 -10 11 -10 2 0 4 5 4 10 0 6 -5 10 -11 10 -5 0 -7
-4 -4 -10z"/>
<path d="M1470 1696 c0 -2 8 -10 18 -17 15 -13 16 -12 3 4 -13 16 -21 21 -21
13z"/>
<path d="M1496 1638 c3 -5 10 -6 15 -3 13 9 11 12 -6 12 -8 0 -12 -4 -9 -9z"/>
<path d="M690 1626 c0 -2 7 -7 16 -10 8 -3 12 -2 9 4 -6 10 -25 14 -25 6z"/>
<path d="M1555 1580 c-3 -5 -1 -10 4 -10 6 0 11 5 11 10 0 6 -2 10 -4 10 -3 0
-8 -4 -11 -10z"/>
<path d="M770 1499 c0 -5 5 -7 10 -4 6 3 10 8 10 11 0 2 -4 4 -10 4 -5 0 -10
-5 -10 -11z"/>
<path d="M256 1458 c3 -5 10 -6 15 -3 13 9 11 12 -6 12 -8 0 -12 -4 -9 -9z"/>
<path d="M796 1322 c-3 -5 1 -9 9 -9 8 0 12 4 9 9 -3 4 -7 8 -9 8 -2 0 -6 -4
-9 -8z"/>
<path d="M1016 1022 c-3 -5 1 -9 9 -9 8 0 12 4 9 9 -3 4 -7 8 -9 8 -2 0 -6 -4
-9 -8z"/>
<path d="M796 1007 c3 -10 9 -15 12 -12 3 3 0 11 -7 18 -10 9 -11 8 -5 -6z"/>
<path d="M2394 760 c0 -13 4 -16 10 -10 7 7 7 13 0 20 -6 6 -10 3 -10 -10z"/>
<path d="M2250 680 c0 -5 5 -10 11 -10 5 0 7 5 4 10 -3 6 -8 10 -11 10 -2 0
-4 -4 -4 -10z"/>
</g>
</svg>
